<svg width="72" height="72" xmlns="http://www.w3.org/2000/svg">
 <style type="text/css">.st0{fill:#FFFFFF;}
	.st1{fill:#4B2C6D;stroke:#FFFFFF;stroke-width:3;stroke-miterlimit:10;}
	.st2{fill:#5ECBF1;}</style>

 <g>
  <title>background</title>
  <rect fill="none" id="canvas_background" height="402" width="582" y="-1" x="-1"/>
 </g>
 <g>
  <title>Layer 1</title>
  <path id="svg_3" d="m34.7,12.35556c-0.034,0 -0.137,0 -0.137,0c-11.423,0.992 -20.52,10.123 -21.546,21.546c0,0 0,0.103 0,0.137c0,0 0,0.068 0,0.103c0,0.752 0.616,1.334 1.334,1.334c0.718,0 1.3,-0.581 1.334,-1.265l0,0c0.855,-10.157 8.96,-18.263 19.084,-19.152l0,0c0.684,-0.034 1.231,-0.581 1.265,-1.265c0,-0.034 0,-0.034 0,-0.068c0.034,-0.788 -0.581,-1.37 -1.334,-1.37z" class="st2"/>
  <path id="svg_4" d="m37.214401,20.422401c-0.034,0 -0.103,0 -0.137,0l-0.034,0c-8.584,0.992 -15.39,7.969 -16.211,16.279c0,0 0,0.103 0,0.171c0,0.752 0.616,1.334 1.334,1.334c0.718,0 1.3,-0.581 1.334,-1.265c0,0 0,0 0,-0.034c0.855,-7.25 6.566,-12.996 13.783,-13.851l0,0c0.684,-0.034 1.231,-0.581 1.265,-1.265c0,-0.034 0,-0.034 0,-0.068c0.034,-0.719 -0.581,-1.301 -1.334,-1.301z" class="st2"/>
  <path id="svg_5" d="m39.728803,26.888883c-0.068,0 -0.171,0 -0.239,0.034c-5.506,0.923 -9.85,5.301 -10.773,10.807l0,0.034c0,0.068 -0.034,0.205 -0.034,0.239c0,0.752 0.581,1.334 1.334,1.334c0.068,0 0.103,0 0.171,0c0.616,-0.068 1.129,-0.581 1.163,-1.197c0,-0.034 0,-0.103 0,-0.137c0.787,-4.275 4.172,-7.661 8.482,-8.447c0,0 0.034,0 0.068,0c0.65,-0.068 1.163,-0.616 1.163,-1.265c0,-0.034 0,-0.034 0,-0.068c0.033,-0.718 -0.582,-1.334 -1.335,-1.334z" class="st2"/>
  <path transform="rotate(175.723, 40.0285, 37.6388)" id="svg_6" d="m44.883326,31.414806c-0.068,0 -0.171,0 -0.239,0.034c-5.506,0.923 -9.85,5.301 -10.773,10.807l0,0.034c0,0.068 -0.034,0.205 -0.034,0.239c0,0.752 0.581,1.334 1.334,1.334c0.068,0 0.103,0 0.171,0c0.616,-0.068 1.129,-0.581 1.163,-1.197c0,-0.034 0,-0.103 0,-0.137c0.787,-4.275 4.172,-7.661 8.482,-8.447c0,0 0.034,0 0.068,0c0.65,-0.068 1.163,-0.616 1.163,-1.265c0,-0.034 0,-0.034 0,-0.068c0.033,-0.718 -0.582,-1.334 -1.335,-1.334z" class="st2"/>
  <path transform="rotate(172.639, 44.2746, 42.2636)" id="svg_7" d="m51.797931,33.37157c-0.034,0 -0.103,0 -0.137,0l-0.034,0c-8.584,0.992 -15.39,7.969 -16.211,16.279c0,0 0,0.103 0,0.171c0,0.752 0.616,1.334 1.334,1.334c0.718,0 1.3,-0.581 1.334,-1.265c0,0 0,0 0,-0.034c0.855,-7.25 6.566,-12.996 13.783,-13.851l0,0c0.684,-0.034 1.231,-0.581 1.265,-1.265c0,-0.034 0,-0.034 0,-0.068c0.034,-0.719 -0.581,-1.301 -1.334,-1.301z" class="st2"/>
  <path transform="rotate(174.724, 50.1731, 47.8024)" id="svg_8" d="m60.346897,36.242377c-0.034,0 -0.137,0 -0.137,0c-11.423,0.992 -20.52,10.123 -21.546,21.546c0,0 0,0.103 0,0.137c0,0 0,0.068 0,0.103c0,0.752 0.616,1.334 1.334,1.334c0.718,0 1.3,-0.581 1.334,-1.265l0,0c0.855,-10.157 8.96,-18.263 19.084,-19.152l0,0c0.684,-0.034 1.231,-0.581 1.265,-1.265c0,-0.034 0,-0.034 0,-0.068c0.034,-0.788 -0.581,-1.37 -1.334,-1.37z" class="st2"/>
 </g>
</svg>